<svg width="1682" height="999" xmlns="http://www.w3.org/2000/svg" xmlns:xlink="http://www.w3.org/1999/xlink" xml:space="preserve" overflow="hidden"><defs><clipPath id="clip0"><rect x="444" y="527" width="1682" height="999"/></clipPath><clipPath id="clip1"><rect x="444" y="527" width="1682" height="999"/></clipPath></defs><g clip-path="url(#clip0)" transform="translate(-444 -527)"><g clip-path="url(#clip1)"><rect x="449" y="532" width="1673" height="990" fill="#FFFFFF" fill-opacity="1"/><g><path d="M537.5 1005.53 2071.5 1005.53M537.5 929.531 2071.5 929.531M537.5 853.528 2071.5 853.528M537.5 777.526 2071.5 777.526M537.5 701.5 2071.5 701.5" stroke="#D9D9D9" stroke-width="3.4375" stroke-linecap="butt" stroke-linejoin="round" stroke-miterlimit="10" stroke-opacity="1" fill="none" fill-rule="nonzero"/></g><g><path d="M537.5 1081.5 2071.5 1081.5" stroke="#D9D9D9" stroke-width="3.4375" stroke-linecap="butt" stroke-linejoin="round" stroke-miterlimit="10" stroke-opacity="1" fill="none" fill-rule="evenodd"/></g><g><path d="M537.5 1081.5 537.5 1314.5M2071.5 1081.5 2071.5 1314.5" stroke="#D9D9D9" stroke-width="3.4375" stroke-linecap="butt" stroke-linejoin="round" stroke-miterlimit="10" stroke-opacity="1" fill="none" fill-rule="nonzero"/></g><g><path d="M537.5 1314.5 537.5 1393.5M2071.5 1314.5 2071.5 1393.5" stroke="#D9D9D9" stroke-width="3.4375" stroke-linecap="butt" stroke-linejoin="round" stroke-miterlimit="10" stroke-opacity="1" fill="none" fill-rule="nonzero"/></g><g><path d="M615 778 768.025 816.027 921.03 854 1075.04 831.027 1228.04 831.027 1381.05 839.028 1535.05 816.027 1688.06 808.026 1842.06 816.027 1995 793.026" stroke="#156082" stroke-width="10.3125" stroke-linecap="round" stroke-linejoin="round" stroke-miterlimit="10" stroke-opacity="1" fill="none" fill-rule="nonzero"/></g><g><path d="M625.666 777.166C625.666 783.241 620.741 788.166 614.667 788.166 608.592 788.166 603.667 783.241 603.667 777.166 603.667 771.091 608.592 766.167 614.667 766.167 620.741 766.167 625.666 771.091 625.666 777.166Z" stroke="#156082" stroke-width="3.4375" stroke-linecap="butt" stroke-linejoin="round" stroke-miterlimit="10" stroke-opacity="1" fill="#156082" fill-rule="nonzero" fill-opacity="1"/><path d="M779.666 815.166C779.666 821.241 774.741 826.166 768.667 826.166 762.592 826.166 757.667 821.241 757.667 815.166 757.667 809.091 762.592 804.166 768.667 804.166 774.741 804.166 779.666 809.091 779.666 815.166Z" stroke="#156082" stroke-width="3.4375" stroke-linecap="butt" stroke-linejoin="round" stroke-miterlimit="10" stroke-opacity="1" fill="#156082" fill-rule="nonzero" fill-opacity="1"/><path d="M932.666 853.166C932.666 859.241 927.741 864.166 921.666 864.166 915.592 864.166 910.667 859.241 910.667 853.166 910.667 847.091 915.592 842.167 921.666 842.167 927.741 842.167 932.666 847.091 932.666 853.166Z" stroke="#156082" stroke-width="3.4375" stroke-linecap="butt" stroke-linejoin="round" stroke-miterlimit="10" stroke-opacity="1" fill="#156082" fill-rule="nonzero" fill-opacity="1"/><path d="M1085.67 830.166C1085.67 836.241 1080.74 841.166 1074.67 841.166 1068.59 841.166 1063.67 836.241 1063.67 830.166 1063.67 824.091 1068.59 819.167 1074.67 819.167 1080.74 819.167 1085.67 824.091 1085.67 830.166Z" stroke="#156082" stroke-width="3.4375" stroke-linecap="butt" stroke-linejoin="round" stroke-miterlimit="10" stroke-opacity="1" fill="#156082" fill-rule="nonzero" fill-opacity="1"/><path d="M1239.67 830.166C1239.67 836.241 1234.74 841.166 1228.67 841.166 1222.59 841.166 1217.67 836.241 1217.67 830.166 1217.67 824.091 1222.59 819.167 1228.67 819.167 1234.74 819.167 1239.67 824.091 1239.67 830.166Z" stroke="#156082" stroke-width="3.4375" stroke-linecap="butt" stroke-linejoin="round" stroke-miterlimit="10" stroke-opacity="1" fill="#156082" fill-rule="nonzero" fill-opacity="1"/><path d="M1392.67 838.166C1392.67 844.241 1387.74 849.166 1381.67 849.166 1375.59 849.166 1370.67 844.241 1370.67 838.166 1370.67 832.091 1375.59 827.166 1381.67 827.166 1387.74 827.166 1392.67 832.091 1392.67 838.166Z" stroke="#156082" stroke-width="3.4375" stroke-linecap="butt" stroke-linejoin="round" stroke-miterlimit="10" stroke-opacity="1" fill="#156082" fill-rule="nonzero" fill-opacity="1"/><path d="M1545.67 815.166C1545.67 821.241 1540.74 826.166 1534.67 826.166 1528.59 826.166 1523.67 821.241 1523.67 815.166 1523.67 809.091 1528.59 804.166 1534.67 804.166 1540.74 804.166 1545.67 809.091 1545.67 815.166Z" stroke="#156082" stroke-width="3.4375" stroke-linecap="butt" stroke-linejoin="round" stroke-miterlimit="10" stroke-opacity="1" fill="#156082" fill-rule="nonzero" fill-opacity="1"/><path d="M1699.67 808.166C1699.67 814.241 1694.74 819.166 1688.67 819.166 1682.59 819.166 1677.67 814.241 1677.67 808.166 1677.67 802.091 1682.59 797.167 1688.67 797.167 1694.74 797.167 1699.67 802.091 1699.67 808.166Z" stroke="#156082" stroke-width="3.4375" stroke-linecap="butt" stroke-linejoin="round" stroke-miterlimit="10" stroke-opacity="1" fill="#156082" fill-rule="nonzero" fill-opacity="1"/><path d="M1852.67 815.166C1852.67 821.241 1847.74 826.166 1841.67 826.166 1835.59 826.166 1830.67 821.241 1830.67 815.166 1830.67 809.091 1835.59 804.166 1841.67 804.166 1847.74 804.166 1852.67 809.091 1852.67 815.166Z" stroke="#156082" stroke-width="3.4375" stroke-linecap="butt" stroke-linejoin="round" stroke-miterlimit="10" stroke-opacity="1" fill="#156082" fill-rule="nonzero" fill-opacity="1"/><path d="M2005.67 792.166C2005.67 798.241 2000.74 803.166 1994.67 803.166 1988.59 803.166 1983.67 798.241 1983.67 792.166 1983.67 786.091 1988.59 781.167 1994.67 781.167 2000.74 781.167 2005.67 786.091 2005.67 792.166Z" stroke="#156082" stroke-width="3.4375" stroke-linecap="butt" stroke-linejoin="round" stroke-miterlimit="10" stroke-opacity="1" fill="#156082" fill-rule="nonzero" fill-opacity="1"/></g><g><path d="M615 785 768.025 831.027 921.03 899 1075.04 823.027 1228.04 854.028 1381.05 846.028 1535.05 846.028 1688.06 816.027 1842.06 808.026 1995 816.027" stroke="#E97132" stroke-width="10.3125" stroke-linecap="round" stroke-linejoin="round" stroke-miterlimit="10" stroke-opacity="1" fill="none" fill-rule="nonzero"/></g><g><path d="M625.666 785.166C625.666 791.241 620.741 796.166 614.667 796.166 608.592 796.166 603.667 791.241 603.667 785.166 603.667 779.091 608.592 774.167 614.667 774.167 620.741 774.167 625.666 779.091 625.666 785.166Z" stroke="#E97132" stroke-width="3.4375" stroke-linecap="butt" stroke-linejoin="round" stroke-miterlimit="10" stroke-opacity="1" fill="#E97132" fill-rule="nonzero" fill-opacity="1"/><path d="M779.666 830.166C779.666 836.241 774.741 841.166 768.667 841.166 762.592 841.166 757.667 836.241 757.667 830.166 757.667 824.091 762.592 819.167 768.667 819.167 774.741 819.167 779.666 824.091 779.666 830.166Z" stroke="#E97132" stroke-width="3.4375" stroke-linecap="butt" stroke-linejoin="round" stroke-miterlimit="10" stroke-opacity="1" fill="#E97132" fill-rule="nonzero" fill-opacity="1"/><path d="M932.666 899.166C932.666 905.241 927.741 910.166 921.666 910.166 915.592 910.166 910.667 905.241 910.667 899.166 910.667 893.091 915.592 888.167 921.666 888.167 927.741 888.167 932.666 893.091 932.666 899.166Z" stroke="#E97132" stroke-width="3.4375" stroke-linecap="butt" stroke-linejoin="round" stroke-miterlimit="10" stroke-opacity="1" fill="#E97132" fill-rule="nonzero" fill-opacity="1"/><path d="M1085.67 823.166C1085.67 829.241 1080.74 834.166 1074.67 834.166 1068.59 834.166 1063.67 829.241 1063.67 823.166 1063.67 817.091 1068.59 812.167 1074.67 812.167 1080.74 812.167 1085.67 817.091 1085.67 823.166Z" stroke="#E97132" stroke-width="3.4375" stroke-linecap="butt" stroke-linejoin="round" stroke-miterlimit="10" stroke-opacity="1" fill="#E97132" fill-rule="nonzero" fill-opacity="1"/><path d="M1239.67 853.166C1239.67 859.241 1234.74 864.166 1228.67 864.166 1222.59 864.166 1217.67 859.241 1217.67 853.166 1217.67 847.091 1222.59 842.167 1228.67 842.167 1234.74 842.167 1239.67 847.091 1239.67 853.166Z" stroke="#E97132" stroke-width="3.4375" stroke-linecap="butt" stroke-linejoin="round" stroke-miterlimit="10" stroke-opacity="1" fill="#E97132" fill-rule="nonzero" fill-opacity="1"/><path d="M1392.67 846.166C1392.67 852.241 1387.74 857.166 1381.67 857.166 1375.59 857.166 1370.67 852.241 1370.67 846.166 1370.67 840.091 1375.59 835.167 1381.67 835.167 1387.74 835.167 1392.67 840.091 1392.67 846.166Z" stroke="#E97132" stroke-width="3.4375" stroke-linecap="butt" stroke-linejoin="round" stroke-miterlimit="10" stroke-opacity="1" fill="#E97132" fill-rule="nonzero" fill-opacity="1"/><path d="M1545.67 846.166C1545.67 852.241 1540.74 857.166 1534.67 857.166 1528.59 857.166 1523.67 852.241 1523.67 846.166 1523.67 840.091 1528.59 835.167 1534.67 835.167 1540.74 835.167 1545.67 840.091 1545.67 846.166Z" stroke="#E97132" stroke-width="3.4375" stroke-linecap="butt" stroke-linejoin="round" stroke-miterlimit="10" stroke-opacity="1" fill="#E97132" fill-rule="nonzero" fill-opacity="1"/><path d="M1699.67 815.166C1699.67 821.241 1694.74 826.166 1688.67 826.166 1682.59 826.166 1677.67 821.241 1677.67 815.166 1677.67 809.091 1682.59 804.166 1688.67 804.166 1694.74 804.166 1699.67 809.091 1699.67 815.166Z" stroke="#E97132" stroke-width="3.4375" stroke-linecap="butt" stroke-linejoin="round" stroke-miterlimit="10" stroke-opacity="1" fill="#E97132" fill-rule="nonzero" fill-opacity="1"/><path d="M1852.67 808.166C1852.67 814.241 1847.74 819.166 1841.67 819.166 1835.59 819.166 1830.67 814.241 1830.67 808.166 1830.67 802.091 1835.59 797.167 1841.67 797.167 1847.74 797.167 1852.67 802.091 1852.67 808.166Z" stroke="#E97132" stroke-width="3.4375" stroke-linecap="butt" stroke-linejoin="round" stroke-miterlimit="10" stroke-opacity="1" fill="#E97132" fill-rule="nonzero" fill-opacity="1"/><path d="M2005.67 815.166C2005.67 821.241 2000.74 826.166 1994.67 826.166 1988.59 826.166 1983.67 821.241 1983.67 815.166 1983.67 809.091 1988.59 804.166 1994.67 804.166 2000.74 804.166 2005.67 809.091 2005.67 815.166Z" stroke="#E97132" stroke-width="3.4375" stroke-linecap="butt" stroke-linejoin="round" stroke-miterlimit="10" stroke-opacity="1" fill="#E97132" fill-rule="nonzero" fill-opacity="1"/></g><g><text fill="#595959" fill-opacity="1" font-family="Aptos Narrow,Aptos Narrow_MSFontService,sans-serif" font-style="normal" font-variant="normal" font-weight="400" font-stretch="semi-condensed" font-size="41" text-anchor="start" direction="ltr" writing-mode="lr-tb" unicode-bidi="normal" text-decoration="none" transform="matrix(1 0 0 1 478.958 1092)">0</text></g><g><text fill="#595959" fill-opacity="1" font-family="Aptos Narrow,Aptos Narrow_MSFontService,sans-serif" font-style="normal" font-variant="normal" font-weight="400" font-stretch="semi-condensed" font-size="41" text-anchor="start" direction="ltr" writing-mode="lr-tb" unicode-bidi="normal" text-decoration="none" transform="matrix(1 0 0 1 478.958 1016)">1</text></g><g><text fill="#595959" fill-opacity="1" font-family="Aptos Narrow,Aptos Narrow_MSFontService,sans-serif" font-style="normal" font-variant="normal" font-weight="400" font-stretch="semi-condensed" font-size="41" text-anchor="start" direction="ltr" writing-mode="lr-tb" unicode-bidi="normal" text-decoration="none" transform="matrix(1 0 0 1 478.958 940)">2</text></g><g><text fill="#595959" fill-opacity="1" font-family="Aptos Narrow,Aptos Narrow_MSFontService,sans-serif" font-style="normal" font-variant="normal" font-weight="400" font-stretch="semi-condensed" font-size="41" text-anchor="start" direction="ltr" writing-mode="lr-tb" unicode-bidi="normal" text-decoration="none" transform="matrix(1 0 0 1 478.958 864)">3</text></g><g><text fill="#595959" fill-opacity="1" font-family="Aptos Narrow,Aptos Narrow_MSFontService,sans-serif" font-style="normal" font-variant="normal" font-weight="400" font-stretch="semi-condensed" font-size="41" text-anchor="start" direction="ltr" writing-mode="lr-tb" unicode-bidi="normal" text-decoration="none" transform="matrix(1 0 0 1 478.958 788)">4</text></g><g><text fill="#595959" fill-opacity="1" font-family="Aptos Narrow,Aptos Narrow_MSFontService,sans-serif" font-style="normal" font-variant="normal" font-weight="400" font-stretch="semi-condensed" font-size="41" text-anchor="start" direction="ltr" writing-mode="lr-tb" unicode-bidi="normal" text-decoration="none" transform="matrix(1 0 0 1 478.958 712)">5</text></g><g><text fill="#595959" fill-opacity="1" font-family="Aptos Narrow,Aptos Narrow_MSFontService,sans-serif" font-style="normal" font-variant="normal" font-weight="400" font-stretch="semi-condensed" font-size="41" text-anchor="start" direction="ltr" writing-mode="lr-tb" unicode-bidi="normal" text-decoration="none" transform="matrix(6.12323e-17 -1 1 6.12323e-17 628.455 1275)">Interested</text></g><g><text fill="#595959" fill-opacity="1" font-family="Aptos Narrow,Aptos Narrow_MSFontService,sans-serif" font-style="normal" font-variant="normal" font-weight="400" font-stretch="semi-condensed" font-size="41" text-anchor="start" direction="ltr" writing-mode="lr-tb" unicode-bidi="normal" text-decoration="none" transform="matrix(6.12323e-17 -1 1 6.12323e-17 781.827 1228)">Excited</text></g><g><text fill="#595959" fill-opacity="1" font-family="Aptos Narrow,Aptos Narrow_MSFontService,sans-serif" font-style="normal" font-variant="normal" font-weight="400" font-stretch="semi-condensed" font-size="41" text-anchor="start" direction="ltr" writing-mode="lr-tb" unicode-bidi="normal" text-decoration="none" transform="matrix(6.12323e-17 -1 1 6.12323e-17 935.199 1214)">Strong</text></g><g><text fill="#595959" fill-opacity="1" font-family="Aptos Narrow,Aptos Narrow_MSFontService,sans-serif" font-style="normal" font-variant="normal" font-weight="400" font-stretch="semi-condensed" font-size="41" text-anchor="start" direction="ltr" writing-mode="lr-tb" unicode-bidi="normal" text-decoration="none" transform="matrix(6.12323e-17 -1 1 6.12323e-17 1088.57 1311)">Enthusiastic</text></g><g><text fill="#595959" fill-opacity="1" font-family="Aptos Narrow,Aptos Narrow_MSFontService,sans-serif" font-style="normal" font-variant="normal" font-weight="400" font-stretch="semi-condensed" font-size="41" text-anchor="start" direction="ltr" writing-mode="lr-tb" unicode-bidi="normal" text-decoration="none" transform="matrix(6.12323e-17 -1 1 6.12323e-17 1241.94 1205)">Proud</text></g><g><text fill="#595959" fill-opacity="1" font-family="Aptos Narrow,Aptos Narrow_MSFontService,sans-serif" font-style="normal" font-variant="normal" font-weight="400" font-stretch="semi-condensed" font-size="41" text-anchor="start" direction="ltr" writing-mode="lr-tb" unicode-bidi="normal" text-decoration="none" transform="matrix(6.12323e-17 -1 1 6.12323e-17 1395.32 1185)">Alert</text></g><g><text fill="#595959" fill-opacity="1" font-family="Aptos Narrow,Aptos Narrow_MSFontService,sans-serif" font-style="normal" font-variant="normal" font-weight="400" font-stretch="semi-condensed" font-size="41" text-anchor="start" direction="ltr" writing-mode="lr-tb" unicode-bidi="normal" text-decoration="none" transform="matrix(6.12323e-17 -1 1 6.12323e-17 1548.69 1241)">Inspired</text></g><g><text fill="#595959" fill-opacity="1" font-family="Aptos Narrow,Aptos Narrow_MSFontService,sans-serif" font-style="normal" font-variant="normal" font-weight="400" font-stretch="semi-condensed" font-size="41" text-anchor="start" direction="ltr" writing-mode="lr-tb" unicode-bidi="normal" text-decoration="none" transform="matrix(6.12323e-17 -1 1 6.12323e-17 1702.06 1302)">Determined</text></g><g><text fill="#595959" fill-opacity="1" font-family="Aptos Narrow,Aptos Narrow_MSFontService,sans-serif" font-style="normal" font-variant="normal" font-weight="400" font-stretch="semi-condensed" font-size="41" text-anchor="start" direction="ltr" writing-mode="lr-tb" unicode-bidi="normal" text-decoration="none" transform="matrix(6.12323e-17 -1 1 6.12323e-17 1855.43 1254)">Attentive</text></g><g><text fill="#595959" fill-opacity="1" font-family="Aptos Narrow,Aptos Narrow_MSFontService,sans-serif" font-style="normal" font-variant="normal" font-weight="400" font-stretch="semi-condensed" font-size="41" text-anchor="start" direction="ltr" writing-mode="lr-tb" unicode-bidi="normal" text-decoration="none" transform="matrix(6.12323e-17 -1 1 6.12323e-17 2008.81 1208)">Active</text></g><g><text fill="#595959" fill-opacity="1" font-family="Aptos Narrow,Aptos Narrow_MSFontService,sans-serif" font-style="normal" font-variant="normal" font-weight="400" font-stretch="semi-condensed" font-size="41" text-anchor="start" direction="ltr" writing-mode="lr-tb" unicode-bidi="normal" text-decoration="none" transform="matrix(1 0 0 1 1259.39 1379)">Mean</text></g><g><text fill="#595959" fill-opacity="1" font-family="Aptos Narrow,Aptos Narrow_MSFontService,sans-serif" font-style="normal" font-variant="normal" font-weight="400" font-stretch="semi-condensed" font-size="64" text-anchor="start" direction="ltr" writing-mode="lr-tb" unicode-bidi="normal" text-decoration="none" transform="matrix(1 0 0 1 1093.59 626)">All participants</text></g><g><path d="M984 1455 1072 1455" stroke="#156082" stroke-width="10.3125" stroke-linecap="round" stroke-linejoin="round" stroke-miterlimit="10" stroke-opacity="1" fill="none" fill-rule="evenodd"/></g><g><path d="M1039 1455C1039 1461.07 1034.07 1466 1028 1466 1021.92 1466 1017 1461.07 1017 1455 1017 1448.92 1021.92 1444 1028 1444 1034.07 1444 1039 1448.92 1039 1455Z" stroke="#156082" stroke-width="3.4375" stroke-linecap="butt" stroke-linejoin="round" stroke-miterlimit="10" stroke-opacity="1" fill="#156082" fill-rule="nonzero" fill-opacity="1"/></g><g><text fill="#595959" fill-opacity="1" font-family="Aptos Narrow,Aptos Narrow_MSFontService,sans-serif" font-style="normal" font-variant="normal" font-weight="400" font-stretch="semi-condensed" font-size="41" text-anchor="start" direction="ltr" writing-mode="lr-tb" unicode-bidi="normal" text-decoration="none" transform="matrix(1 0 0 1 1081.63 1466)">existing apps</text></g><g><path d="M1347 1455 1435 1455" stroke="#E97132" stroke-width="10.3125" stroke-linecap="round" stroke-linejoin="round" stroke-miterlimit="10" stroke-opacity="1" fill="none" fill-rule="evenodd"/></g><g><path d="M1402 1455C1402 1461.07 1397.08 1466 1391 1466 1384.93 1466 1380 1461.07 1380 1455 1380 1448.92 1384.93 1444 1391 1444 1397.08 1444 1402 1448.92 1402 1455Z" stroke="#E97132" stroke-width="3.4375" stroke-linecap="butt" stroke-linejoin="round" stroke-miterlimit="10" stroke-opacity="1" fill="#E97132" fill-rule="nonzero" fill-opacity="1"/></g><g><text fill="#595959" fill-opacity="1" font-family="Aptos Narrow,Aptos Narrow_MSFontService,sans-serif" font-style="normal" font-variant="normal" font-weight="400" font-stretch="semi-condensed" font-size="41" text-anchor="start" direction="ltr" writing-mode="lr-tb" unicode-bidi="normal" text-decoration="none" transform="matrix(1 0 0 1 1444.72 1466)">prototype</text></g><rect x="449.5" y="532.5" width="1673" height="990" stroke="#D9D9D9" stroke-width="3.4375" stroke-linecap="butt" stroke-linejoin="round" stroke-miterlimit="10" stroke-opacity="1" fill="none"/></g></g></svg>